<svg width="34" height="35" viewBox="0 0 34 35" fill="none" xmlns="http://www.w3.org/2000/svg">
<path d="M22.25 17.382C22.25 18.7744 21.6968 20.1098 20.7123 21.0943C19.7277 22.0789 18.3923 22.632 17 22.632C15.6076 22.632 14.2722 22.0789 13.2876 21.0943C12.3031 20.1098 11.75 18.7744 11.75 17.382C11.75 17.0828 11.7815 16.7905 11.8357 16.507H9.99995V23.5018C9.99995 23.9883 10.3937 24.382 10.8802 24.382H23.1215C23.3546 24.3816 23.5781 24.2886 23.7428 24.1236C23.9075 23.9586 24 23.7349 24 23.5018V16.507H22.1642C22.2185 16.7905 22.25 17.0828 22.25 17.382V17.382ZM17 20.882C17.4597 20.8819 17.9149 20.7913 18.3396 20.6152C18.7643 20.4392 19.1502 20.1812 19.4752 19.856C19.8002 19.5309 20.058 19.1449 20.2338 18.7201C20.4096 18.2953 20.5001 17.84 20.5 17.3803C20.4998 16.9205 20.4092 16.4653 20.2331 16.0406C20.0571 15.6159 19.7991 15.2301 19.474 14.905C19.1488 14.58 18.7628 14.3223 18.338 14.1464C17.9132 13.9706 17.4579 13.8802 16.9982 13.8803C16.0697 13.8805 15.1793 14.2496 14.523 14.9063C13.8666 15.563 13.498 16.4535 13.4982 17.382C13.4984 18.3105 13.8675 19.2009 14.5242 19.8573C15.1809 20.5136 16.0715 20.8823 17 20.882V20.882ZM21.2 13.707H23.2982C23.4376 13.707 23.5713 13.6518 23.6701 13.5534C23.7688 13.455 23.8245 13.3214 23.825 13.182V11.0838C23.825 10.9441 23.7695 10.8101 23.6707 10.7113C23.5719 10.6125 23.4379 10.557 23.2982 10.557H21.2C21.0603 10.557 20.9263 10.6125 20.8275 10.7113C20.7287 10.8101 20.6732 10.9441 20.6732 11.0838V13.182C20.675 13.4708 20.9112 13.707 21.2 13.707V13.707ZM17 0.582031C12.5443 0.582031 8.27117 2.35203 5.12056 5.50264C1.96995 8.65325 0.199951 12.9264 0.199951 17.382C0.199951 21.8377 1.96995 26.1108 5.12056 29.2614C8.27117 32.412 12.5443 34.182 17 34.182C19.2062 34.182 21.3908 33.7475 23.429 32.9032C25.4673 32.0589 27.3193 30.8215 28.8793 29.2614C30.4394 27.7014 31.6769 25.8494 32.5211 23.8111C33.3654 21.7728 33.8 19.5882 33.8 17.382C33.8 15.1758 33.3654 12.9912 32.5211 10.953C31.6769 8.91468 30.4394 7.06266 28.8793 5.50264C27.3193 3.94261 25.4673 2.70513 23.429 1.86086C21.3908 1.01658 19.2062 0.582031 17 0.582031V0.582031ZM25.75 24.1878C25.75 25.257 24.875 26.132 23.8057 26.132H10.1942C9.12495 26.132 8.24995 25.257 8.24995 24.1878V10.5763C8.24995 9.50703 9.12495 8.63203 10.1942 8.63203H23.8057C24.875 8.63203 25.75 9.50703 25.75 10.5763V24.1878V24.1878Z" fill="white"/>
</svg>
