<svg width="35" height="35" viewBox="0 0 35 35" fill="none" xmlns="http://www.w3.org/2000/svg">
<path d="M17.4 0.582031C8.12148 0.582031 0.599976 8.10353 0.599976 17.382C0.599976 26.6605 8.12148 34.182 17.4 34.182C26.6785 34.182 34.2 26.6605 34.2 17.382C34.2 8.10353 26.6785 0.582031 17.4 0.582031ZM24.2337 14.344C24.2407 14.4875 24.2425 14.631 24.2425 14.771C24.2425 19.146 20.9157 24.1878 14.8292 24.1878C13.0307 24.1908 11.2697 23.6742 9.75773 22.7003C10.015 22.7318 10.2792 22.744 10.547 22.744C12.0975 22.744 13.5237 22.2173 14.656 21.3283C13.966 21.3147 13.2974 21.0863 12.7434 20.6747C12.1894 20.2631 11.7777 19.689 11.5655 19.0323C12.061 19.1265 12.5715 19.1068 13.0582 18.9745C12.3093 18.8231 11.6358 18.4173 11.152 17.8259C10.6681 17.2346 10.4037 16.4941 10.4035 15.73V15.6898C10.8497 15.9365 11.3607 16.087 11.9032 16.1045C11.2011 15.6372 10.7041 14.9192 10.5138 14.0975C10.3235 13.2758 10.4543 12.4125 10.8795 11.684C11.7106 12.706 12.7472 13.5421 13.922 14.1381C15.0968 14.7341 16.3836 15.0767 17.6992 15.1438C17.532 14.4338 17.604 13.6885 17.904 13.0237C18.204 12.3588 18.7153 11.8118 19.3584 11.4675C20.0014 11.1232 20.7402 11.001 21.4598 11.12C22.1794 11.2389 22.8396 11.5922 23.3377 12.125C24.0783 11.9785 24.7884 11.7069 25.4377 11.3218C25.1909 12.0885 24.6742 12.7396 23.9835 13.154C24.6395 13.075 25.28 12.8987 25.884 12.6308C25.4403 13.2956 24.8815 13.8758 24.2337 14.344V14.344Z" fill="white"/>
</svg>
