<svg width="147" height="167" viewBox="0 0 147 167" fill="none" xmlns="http://www.w3.org/2000/svg">
<path fill-rule="evenodd" clip-rule="evenodd" d="M52.5019 40.3131C53.1586 38.8873 53.9279 37.7798 54.4362 37.1958C54.4462 38.5732 54.2339 39.8087 53.9052 40.8825C54.9166 41.3704 55.9677 42.0536 56.9719 42.9962C56.1981 42.9728 54.8627 42.7854 53.3701 42.2993C52.6821 43.8165 51.8124 44.864 51.2422 45.3517C51.2808 44.0749 51.5495 42.8512 51.9269 41.7474C50.8603 41.2747 49.7795 40.6409 48.816 39.8022C49.5613 39.7148 50.9209 39.7878 52.5019 40.3131Z" fill="url(#paint0_linear_772_1971)"/>
<path fill-rule="evenodd" clip-rule="evenodd" d="M47.3104 26.0314C47.7476 25.0824 48.2596 24.3452 48.598 23.9565C48.6046 24.8733 48.4633 25.6957 48.2445 26.4104C48.9177 26.7351 49.6173 27.1899 50.2858 27.8173C49.7707 27.8018 48.8818 27.677 47.8884 27.3534C47.4304 28.3633 46.8515 29.0607 46.4719 29.3853C46.4976 28.5354 46.6765 27.7208 46.9277 26.9861C46.2177 26.6715 45.4983 26.2496 44.857 25.6913C45.353 25.6331 46.258 25.6817 47.3104 26.0314Z" fill="url(#paint1_linear_772_1971)"/>
<path fill-rule="evenodd" clip-rule="evenodd" d="M33.2598 11.8326C33.9166 10.4068 34.6858 9.29932 35.1942 8.71536C35.2041 10.0927 34.9919 11.3282 34.6632 12.402C35.6746 12.8899 36.7256 13.573 37.7299 14.5157C36.956 14.4923 35.6206 14.3049 34.1281 13.8187C33.4401 15.336 32.5703 16.3836 32.0001 16.8713C32.0387 15.5944 32.3074 14.3707 32.6848 13.2668C31.6182 12.7942 30.5375 12.1604 29.574 11.3216C30.3192 11.2343 31.6788 11.3073 33.2598 11.8326Z" fill="url(#paint2_linear_772_1971)"/>
<path fill-rule="evenodd" clip-rule="evenodd" d="M31.0334 43.798C31.9997 41.7004 33.1314 40.0709 33.8793 39.2118C33.894 41.2382 33.5817 43.0559 33.0981 44.6357C34.5861 45.3535 36.1324 46.3586 37.61 47.7455C36.4714 47.711 34.5068 47.4353 32.3109 46.7201C31.2986 48.9523 30.0191 50.4935 29.1802 51.211C29.237 49.3325 29.6323 47.5321 30.1875 45.9081C28.6183 45.2128 27.0283 44.2803 25.6107 43.0463C26.7071 42.9178 28.7074 43.0251 31.0334 43.798Z" fill="url(#paint3_linear_772_1971)"/>
<circle cx="36.8464" cy="29.4407" r="0.846528" transform="rotate(21.3865 36.8464 29.4407)" fill="#2F235A"/>
<circle cx="57.8066" cy="18.7962" r="0.846528" transform="rotate(21.3865 57.8066 18.7962)" fill="#FE9076"/>
<circle cx="17.5716" cy="23.4212" r="0.846528" transform="rotate(21.3865 17.5716 23.4212)" fill="#FFA400"/>
<circle cx="35.7494" cy="57.5071" r="0.846528" transform="rotate(21.3865 35.7494 57.5071)" fill="#23BB86"/>
<path d="M57.1636 14.7526C56.3401 11.6071 53.3674 4.41325 48.0655 0.801714" stroke="#FE9076" stroke-width="0.736823" stroke-linecap="round"/>
<path d="M15.0732 20.0068C13.0239 17.4824 7.34522 12.1588 1.02493 11.0597" stroke="#FFA400" stroke-width="0.736823" stroke-linecap="round"/>
<path d="M32.1475 58.7383C30.3314 59.4006 25.7596 61.5111 22.0012 64.6544" stroke="#23BB86" stroke-width="0.736823" stroke-linecap="round"/>
<path fill-rule="evenodd" clip-rule="evenodd" d="M94.4522 40.3131C93.7955 38.8873 93.0262 37.7798 92.5179 37.1958C92.5079 38.5732 92.7202 39.8087 93.0489 40.8825C92.0375 41.3704 90.9864 42.0536 89.9822 42.9962C90.756 42.9728 92.0914 42.7854 93.584 42.2993C94.272 43.8165 95.1417 44.864 95.7119 45.3517C95.6733 44.0749 95.4046 42.8512 95.0272 41.7474C96.0938 41.2747 97.1746 40.6409 98.1381 39.8022C97.3928 39.7148 96.0332 39.7878 94.4522 40.3131Z" fill="url(#paint4_linear_772_1971)"/>
<path fill-rule="evenodd" clip-rule="evenodd" d="M99.6437 26.0314C99.2065 25.0824 98.6945 24.3452 98.3561 23.9565C98.3495 24.8733 98.4908 25.6957 98.7096 26.4104C98.0364 26.7351 97.3368 27.1899 96.6683 27.8173C97.1834 27.8018 98.0723 27.677 99.0657 27.3534C99.5237 28.3633 100.103 29.0607 100.482 29.3853C100.456 28.5354 100.278 27.7208 100.026 26.9861C100.736 26.6715 101.456 26.2496 102.097 25.6913C101.601 25.6331 100.696 25.6817 99.6437 26.0314Z" fill="url(#paint5_linear_772_1971)"/>
<path fill-rule="evenodd" clip-rule="evenodd" d="M113.694 11.8326C113.038 10.4068 112.268 9.29932 111.76 8.71536C111.75 10.0927 111.962 11.3282 112.291 12.402C111.28 12.8899 110.228 13.573 109.224 14.5157C109.998 14.4923 111.333 14.3049 112.826 13.8187C113.514 15.336 114.384 16.3836 114.954 16.8713C114.915 15.5944 114.647 14.3707 114.269 13.2668C115.336 12.7942 116.417 12.1604 117.38 11.3216C116.635 11.2343 115.275 11.3073 113.694 11.8326Z" fill="url(#paint6_linear_772_1971)"/>
<path fill-rule="evenodd" clip-rule="evenodd" d="M115.921 43.798C114.954 41.7004 113.823 40.0709 113.075 39.2118C113.06 41.2382 113.372 43.0559 113.856 44.6357C112.368 45.3535 110.822 46.3586 109.344 47.7455C110.483 47.711 112.447 47.4353 114.643 46.7201C115.655 48.9523 116.935 50.4935 117.774 51.211C117.717 49.3325 117.322 47.5321 116.767 45.9081C118.336 45.2128 119.926 44.2803 121.343 43.0463C120.247 42.9178 118.247 43.0251 115.921 43.798Z" fill="url(#paint7_linear_772_1971)"/>
<circle cx="0.846528" cy="0.846528" r="0.846528" transform="matrix(-0.931142 0.364658 0.364658 0.931142 110.587 28.3438)" fill="#2F235A"/>
<circle cx="0.846528" cy="0.846528" r="0.846528" transform="matrix(-0.931142 0.364658 0.364658 0.931142 89.6271 17.6992)" fill="#FE9076"/>
<circle cx="0.846528" cy="0.846528" r="0.846528" transform="matrix(-0.931142 0.364658 0.364658 0.931142 129.862 22.3242)" fill="#FFA400"/>
<circle cx="0.846528" cy="0.846528" r="0.846528" transform="matrix(-0.931142 0.364658 0.364658 0.931142 111.684 56.4102)" fill="#23BB86"/>
<path d="M89.7905 14.7526C90.614 11.6071 93.5867 4.41325 98.8886 0.801714" stroke="#FE9076" stroke-width="0.736823" stroke-linecap="round"/>
<path d="M131.881 20.0068C133.93 17.4824 139.609 12.1588 145.929 11.0597" stroke="#FFA400" stroke-width="0.736823" stroke-linecap="round"/>
<path d="M114.807 58.7383C116.623 59.4006 121.195 61.5111 124.953 64.6544" stroke="#23BB86" stroke-width="0.736823" stroke-linecap="round"/>
<rect x="28.0122" y="104.066" width="89.8505" height="62.1103" fill="url(#paint8_linear_772_1971)"/>
<mask id="mask0_772_1971" style="mask-type:alpha" maskUnits="userSpaceOnUse" x="28" y="104" width="90" height="63">
<rect x="28.0122" y="104.066" width="89.8505" height="62.1103" fill="#C4C4C4"/>
</mask>
<g mask="url(#mask0_772_1971)">
<path d="M32.2636 102.484L93.4456 102.484L79.617 126.496L18.4351 126.496L32.2636 102.484Z" fill="black" fill-opacity="0.07"/>
<rect x="89.1141" y="104.066" width="89.8505" height="62.1103" fill="url(#paint9_linear_772_1971)"/>
</g>
<path d="M27.9328 104.066L89.1148 104.066L77.2962 123.789L16.1143 123.789L27.9328 104.066Z" fill="url(#paint10_linear_772_1971)"/>
<mask id="mask1_772_1971" style="mask-type:alpha" maskUnits="userSpaceOnUse" x="89" y="104" width="29" height="63">
<rect x="89.1147" y="104.066" width="28.7479" height="62.1103" fill="#C4C4C4"/>
</mask>
<g mask="url(#mask1_772_1971)">
<path d="M114.363 103.965L85.5699 103.965L99.0991 126.672L127.892 126.672L114.363 103.965Z" fill="black" fill-opacity="0.07"/>
</g>
<path d="M117.908 104.066L89.1148 104.066L100.933 123.789L129.726 123.789L117.908 104.066Z" fill="url(#paint11_linear_772_1971)"/>
<circle cx="59.8631" cy="86.8658" r="8.49082" fill="url(#paint12_linear_772_1971)"/>
<circle cx="86.2633" cy="75.5172" r="8.20473" fill="url(#paint13_linear_772_1971)"/>
<circle cx="68.354" cy="54.6124" r="6.61631" fill="url(#paint14_linear_772_1971)"/>
<circle cx="90.7647" cy="53.6109" r="1.65" fill="#FFA800" fill-opacity="0.23"/>
<circle cx="79.7086" cy="91.1148" r="1.65" fill="#FFA800" fill-opacity="0.23"/>
<circle cx="52.6145" cy="65.6617" r="1.65" fill="#FFA800" fill-opacity="0.23"/>
<path d="M118.075 104.36H27.941L14.0986 19.0117H134.697L118.075 104.36Z" fill="url(#paint15_linear_772_1971)"/>
<defs>
<linearGradient id="paint0_linear_772_1971" x1="54.1863" y1="38.0992" x2="51.1873" y2="45.7571" gradientUnits="userSpaceOnUse">
<stop stop-color="#FFE89E"/>
<stop offset="1" stop-color="#FFBF1A"/>
</linearGradient>
<linearGradient id="paint1_linear_772_1971" x1="48.4316" y1="24.5578" x2="46.4354" y2="29.6551" gradientUnits="userSpaceOnUse">
<stop stop-color="#FFE89E"/>
<stop offset="1" stop-color="#FFBF1A"/>
</linearGradient>
<linearGradient id="paint2_linear_772_1971" x1="34.9443" y1="9.61872" x2="31.9453" y2="17.2766" gradientUnits="userSpaceOnUse">
<stop stop-color="#FFE89E"/>
<stop offset="1" stop-color="#FFBF1A"/>
</linearGradient>
<linearGradient id="paint3_linear_772_1971" x1="33.5117" y1="40.5408" x2="29.0994" y2="51.8074" gradientUnits="userSpaceOnUse">
<stop stop-color="#FFE89E"/>
<stop offset="1" stop-color="#FFBF1A"/>
</linearGradient>
<linearGradient id="paint4_linear_772_1971" x1="92.7678" y1="38.0992" x2="95.7668" y2="45.7571" gradientUnits="userSpaceOnUse">
<stop stop-color="#FFE89E"/>
<stop offset="1" stop-color="#FFBF1A"/>
</linearGradient>
<linearGradient id="paint5_linear_772_1971" x1="98.5225" y1="24.5578" x2="100.519" y2="29.6551" gradientUnits="userSpaceOnUse">
<stop stop-color="#FFE89E"/>
<stop offset="1" stop-color="#FFBF1A"/>
</linearGradient>
<linearGradient id="paint6_linear_772_1971" x1="112.01" y1="9.61872" x2="115.009" y2="17.2766" gradientUnits="userSpaceOnUse">
<stop stop-color="#FFE89E"/>
<stop offset="1" stop-color="#FFBF1A"/>
</linearGradient>
<linearGradient id="paint7_linear_772_1971" x1="113.442" y1="40.5408" x2="117.855" y2="51.8074" gradientUnits="userSpaceOnUse">
<stop stop-color="#FFE89E"/>
<stop offset="1" stop-color="#FFBF1A"/>
</linearGradient>
<linearGradient id="paint8_linear_772_1971" x1="58.0264" y1="92.5673" x2="22.2162" y2="191.199" gradientUnits="userSpaceOnUse">
<stop stop-color="#FFD481"/>
<stop offset="1" stop-color="#FA620C"/>
</linearGradient>
<linearGradient id="paint9_linear_772_1971" x1="43.342" y1="100.127" x2="152.022" y2="216.266" gradientUnits="userSpaceOnUse">
<stop stop-color="#FFD481"/>
<stop offset="0.83311" stop-color="#FA620C"/>
</linearGradient>
<linearGradient id="paint10_linear_772_1971" x1="29.1919" y1="97.0175" x2="26.2842" y2="139.04" gradientUnits="userSpaceOnUse">
<stop stop-color="#FFD481"/>
<stop offset="1" stop-color="#FA620C"/>
</linearGradient>
<linearGradient id="paint11_linear_772_1971" x1="122.451" y1="97.0175" x2="127.623" y2="138.598" gradientUnits="userSpaceOnUse">
<stop stop-color="#FFD481"/>
<stop offset="1" stop-color="#FA620C"/>
</linearGradient>
<linearGradient id="paint12_linear_772_1971" x1="60.5061" y1="75.5727" x2="58.891" y2="98.4915" gradientUnits="userSpaceOnUse">
<stop stop-color="#FF9F81"/>
<stop offset="1" stop-color="#F53838"/>
</linearGradient>
<linearGradient id="paint13_linear_772_1971" x1="86.8846" y1="64.6047" x2="85.3239" y2="86.7512" gradientUnits="userSpaceOnUse">
<stop stop-color="#FF9F81"/>
<stop offset="1" stop-color="#F53838"/>
</linearGradient>
<linearGradient id="paint14_linear_772_1971" x1="68.855" y1="45.8125" x2="67.5965" y2="63.6715" gradientUnits="userSpaceOnUse">
<stop stop-color="#FF9F81"/>
<stop offset="1" stop-color="#F53838"/>
</linearGradient>
<linearGradient id="paint15_linear_772_1971" x1="73.4067" y1="19.0117" x2="73.4067" y2="200.336" gradientUnits="userSpaceOnUse">
<stop stop-color="white" stop-opacity="0"/>
<stop offset="1" stop-color="#FE9277"/>
</linearGradient>
</defs>
</svg>
