<svg width="20" height="18" viewBox="0 0 20 18" fill="none" xmlns="http://www.w3.org/2000/svg">
<path d="M18.75 8.00547H3.925L8.4625 2.55547C8.67467 2.3002 8.77675 1.9711 8.74628 1.64057C8.7158 1.31003 8.55527 1.00514 8.3 0.792972C8.04473 0.580798 7.71563 0.478721 7.3851 0.509196C7.05456 0.53967 6.74967 0.700201 6.5375 0.955472L0.2875 8.45547C0.245451 8.51513 0.207849 8.5778 0.175 8.64297C0.175 8.70547 0.175 8.74297 0.0875002 8.80547C0.0308421 8.9488 0.0011764 9.10136 0 9.25547C0.0011764 9.40958 0.0308421 9.56215 0.0875002 9.70547C0.0875002 9.76797 0.0874998 9.80547 0.175 9.86797C0.207849 9.93315 0.245451 9.99582 0.2875 10.0555L6.5375 17.5555C6.65503 17.6966 6.8022 17.81 6.96856 17.8878C7.13491 17.9656 7.31636 18.0058 7.5 18.0055C7.79207 18.006 8.07511 17.9043 8.3 17.718C8.42657 17.613 8.5312 17.4842 8.60789 17.3387C8.68458 17.1933 8.73183 17.0342 8.74692 16.8704C8.76202 16.7067 8.74466 16.5416 8.69586 16.3846C8.64705 16.2276 8.56775 16.0818 8.4625 15.9555L3.925 10.5055H18.75C19.0815 10.5055 19.3995 10.3738 19.6339 10.1394C19.8683 9.90493 20 9.58699 20 9.25547C20 8.92395 19.8683 8.60601 19.6339 8.37159C19.3995 8.13717 19.0815 8.00547 18.75 8.00547Z" fill="#F53838"/>
</svg>
