<svg width="20" height="18" viewBox="0 0 20 18" fill="none" xmlns="http://www.w3.org/2000/svg">
<path d="M1.25 8.00547H16.075L11.5375 2.55547C11.3253 2.3002 11.2232 1.9711 11.2537 1.64057C11.2842 1.31003 11.4447 1.00514 11.7 0.792972C11.9553 0.580798 12.2844 0.478721 12.6149 0.509196C12.9454 0.53967 13.2503 0.700201 13.4625 0.955472L19.7125 8.45547C19.7545 8.51513 19.7922 8.5778 19.825 8.64297C19.825 8.70547 19.825 8.74297 19.9125 8.80547C19.9692 8.9488 19.9988 9.10136 20 9.25547C19.9988 9.40958 19.9692 9.56215 19.9125 9.70547C19.9125 9.76797 19.9125 9.80547 19.825 9.86797C19.7922 9.93315 19.7545 9.99582 19.7125 10.0555L13.4625 17.5555C13.345 17.6966 13.1978 17.81 13.0314 17.8878C12.8651 17.9656 12.6836 18.0058 12.5 18.0055C12.2079 18.006 11.9249 17.9043 11.7 17.718C11.5734 17.613 11.4688 17.4842 11.3921 17.3387C11.3154 17.1933 11.2682 17.0342 11.2531 16.8704C11.238 16.7067 11.2553 16.5416 11.3041 16.3846C11.3529 16.2276 11.4322 16.0818 11.5375 15.9555L16.075 10.5055H1.25C0.91848 10.5055 0.600536 10.3738 0.366116 10.1394C0.131695 9.90493 0 9.58699 0 9.25547C0 8.92395 0.131695 8.60601 0.366116 8.37159C0.600536 8.13717 0.91848 8.00547 1.25 8.00547Z" fill="white"/>
</svg>
