<svg width="14" height="14" viewBox="0 0 14 14" fill="none" xmlns="http://www.w3.org/2000/svg">
<path d="M13.1891 5.41876L9.2219 4.84219L7.44847 1.24688C7.40003 1.14844 7.32034 1.06876 7.2219 1.02032C6.97503 0.898443 6.67503 1.00001 6.55159 1.24688L4.77815 4.84219L0.810967 5.41876C0.701592 5.43438 0.601592 5.48594 0.525029 5.56407C0.432469 5.6592 0.381465 5.78719 0.383223 5.91992C0.384981 6.05264 0.439357 6.17923 0.534404 6.27188L3.40472 9.07032L2.72659 13.0219C2.71069 13.1138 2.72086 13.2083 2.75595 13.2948C2.79105 13.3812 2.84966 13.4561 2.92514 13.5109C3.00062 13.5657 3.08995 13.5983 3.183 13.6049C3.27605 13.6116 3.3691 13.592 3.45159 13.5484L7.00003 11.6828L10.5485 13.5484C10.6453 13.6 10.7578 13.6172 10.8657 13.5984C11.1375 13.5516 11.3203 13.2938 11.2735 13.0219L10.5953 9.07032L13.4657 6.27188C13.5438 6.19532 13.5953 6.09532 13.611 5.98594C13.6532 5.71251 13.4625 5.45938 13.1891 5.41876V5.41876Z" fill="#FEA250"/>
</svg>
